<svg version="1.0" xmlns="http://www.w3.org/2000/svg"
 width="5001.000000pt" height="2814.000000pt" viewBox="0 0 5001.000000 2814.000000"
 preserveAspectRatio="xMidYMid meet">

<g transform="translate(0.000000,2814.000000) scale(0.100000,-0.100000)"
fill="red" stroke="none">
<path d="M18755 17655 c-11 -4 -384 -54 -595 -79 -227 -27 -314 -29 -520 -11
-117 11 -240 16 -307 13 -70 -3 -143 0 -195 8 -46 8 -113 14 -150 14 -88 0
-1059 -64 -1358 -90 -829 -72 -2105 -265 -3185 -481 -137 -28 -360 -70 -495
-95 -405 -74 -555 -116 -785 -221 -66 -30 -196 -86 -290 -125 -93 -38 -174
-73 -179 -78 -11 -11 78 -27 196 -35 77 -5 105 -12 130 -29 40 -27 41 -43 5
-70 -23 -17 -48 -22 -140 -27 -109 -7 -117 -9 -277 -74 -91 -37 -166 -68 -167
-69 -2 -2 67 -196 72 -203 1 -2 26 2 56 8 58 12 114 0 107 -23 -2 -6 -64 -43
-136 -82 -73 -39 -156 -90 -186 -113 -58 -46 -110 -116 -127 -173 -10 -34 -8
-40 33 -99 42 -61 44 -63 81 -58 23 3 60 22 99 51 50 37 70 46 103 46 23 0 44
-3 47 -6 4 -3 -11 -55 -33 -114 l-38 -109 82 -45 c127 -69 158 -78 295 -84
110 -4 122 -6 122 -23 0 -10 -8 -23 -18 -28 -10 -5 -56 -44 -103 -86 -105 -95
-143 -118 -244 -145 -93 -24 -167 -70 -225 -140 -22 -26 -40 -51 -40 -55 0 -5
44 -5 98 -2 53 4 142 10 198 13 102 7 214 -1 214 -15 0 -24 -252 -93 -278 -77
-12 7 -179 -13 -283 -35 -121 -25 -321 -87 -315 -97 3 -4 47 -29 98 -55 128
-65 278 -91 528 -91 164 -1 180 1 250 26 67 23 81 25 123 15 43 -9 50 -8 75
12 49 39 93 52 211 62 135 11 179 3 235 -43 21 -17 35 -32 33 -34 -5 -5 -338
-87 -562 -140 -201 -46 -213 -51 -230 -84 -8 -16 -15 -33 -15 -38 0 -4 43 -18
96 -31 53 -13 92 -26 87 -30 -4 -4 -30 -25 -56 -46 -26 -21 -46 -42 -45 -47 2
-5 30 -24 63 -41 55 -29 60 -35 63 -68 6 -75 -44 -98 -218 -99 -88 0 -201 -17
-216 -33 -7 -7 248 -65 399 -91 173 -30 380 -52 575 -62 139 -7 142 -7 125
-26 -29 -32 -135 -76 -213 -89 -93 -15 -244 -6 -395 22 -163 30 -197 32 -220
14 -19 -15 -19 -15 0 -34 16 -15 120 -37 495 -104 261 -47 494 -88 518 -91 24
-4 66 -19 95 -35 129 -73 287 -97 562 -88 175 6 579 34 1404 98 379 29 407 30
439 15 18 -9 32 -22 30 -28 -7 -20 -45 -26 -163 -27 -152 -2 -308 -16 -600
-57 -257 -35 -325 -51 -385 -89 -39 -25 -116 -102 -109 -109 4 -4 653 -46 712
-46 24 0 27 -4 27 -31 0 -22 -10 -41 -33 -64 -31 -31 -37 -33 -136 -40 -57 -4
-212 -4 -345 0 -196 5 -298 3 -546 -14 -768 -53 -1906 -147 -1965 -162 -22 -6
-58 -23 -80 -38 -127 -89 -196 -104 -605 -131 -173 -11 -353 -23 -400 -26 -85
-6 -170 -33 -170 -54 0 -24 86 -102 145 -131 57 -28 82 -33 286 -54 123 -14
285 -25 359 -25 146 0 222 -7 520 -45 107 -13 276 -33 374 -45 189 -21 238
-37 244 -77 3 -19 -3 -20 -145 -27 -81 -4 -274 -16 -428 -27 -154 -11 -376
-24 -493 -28 -117 -5 -216 -12 -219 -15 -3 -3 11 -13 31 -21 28 -12 66 -15
154 -13 64 2 161 -3 215 -10 53 -7 173 -17 265 -21 161 -8 229 -21 215 -43
-14 -24 -86 -41 -208 -48 -71 -5 -143 -14 -160 -20 -28 -11 -29 -12 -10 -22
11 -7 78 -15 150 -18 94 -5 140 -12 165 -25 38 -19 70 -44 70 -55 0 -4 -71
-12 -157 -19 -226 -17 -243 -20 -243 -42 0 -22 -5 -21 355 -55 149 -14 385
-38 525 -54 140 -16 338 -36 440 -45 326 -27 497 -54 583 -90 21 -8 37 -19 37
-23 0 -11 -468 -55 -510 -48 -19 3 -201 20 -405 37 -407 34 -535 34 -535 -1 0
-48 178 -74 1170 -170 1198 -116 1315 -128 1830 -185 730 -80 1035 -104 1825
-145 632 -32 879 -39 1890 -51 896 -12 976 -11 1195 5 129 10 237 20 239 22 9
8 -11 35 -31 43 -13 4 -135 12 -273 15 -672 20 -960 34 -997 49 -43 18 -60 46
-56 89 2 25 9 33 31 39 94 25 308 29 1556 29 724 0 1827 5 2451 10 2004 17
4069 32 5045 35 952 3 999 5 1153 40 52 12 122 13 445 5 210 -5 828 -10 1372
-10 648 0 1054 -4 1175 -12 160 -10 206 -9 340 5 107 12 241 17 432 17 245 0
1091 30 1718 60 585 29 1051 62 1540 109 347 34 389 37 880 56 402 16 578 28
760 51 63 8 227 19 365 25 207 9 256 14 285 29 l35 18 -40 8 c-63 13 -332 9
-420 -5 -102 -17 -228 -17 -285 -2 l-44 13 54 19 c102 37 404 120 505 139 55
10 153 26 218 35 107 14 251 52 285 74 9 5 -28 11 -98 16 -94 6 -115 10 -137
29 -21 18 -25 28 -19 49 3 15 14 31 24 36 40 21 185 42 463 66 358 30 363 31
399 62 57 47 46 52 -132 51 -154 -1 -281 13 -293 33 -8 12 45 69 84 88 67 34
198 58 645 121 262 36 286 42 330 81 34 29 61 104 50 134 -7 17 17 19 518 52
451 29 460 31 328 64 -44 11 -160 13 -597 11 -577 -4 -653 1 -653 39 0 24 6
25 240 44 107 9 263 25 345 35 83 10 213 21 290 25 157 7 242 18 329 42 l59
17 -39 15 c-34 14 -123 16 -769 13 -790 -4 -751 -6 -1120 53 -76 13 -211 15
-766 13 -610 -2 -677 0 -705 15 -33 17 -49 54 -39 87 12 38 143 66 375 80 278
17 421 29 475 42 l50 12 -40 8 c-22 4 -173 10 -336 12 -245 4 -302 7 -337 21
-23 10 -42 19 -42 21 0 3 18 40 40 84 l40 80 -237 1 c-320 0 -353 7 -368 71
-13 50 1 53 566 118 660 75 1003 118 1054 132 22 5 56 18 75 28 36 19 101 80
84 80 -5 0 -115 -9 -244 -20 -129 -12 -360 -24 -512 -27 l-278 -6 0 29 c1 52
34 109 75 129 53 24 182 42 408 56 179 10 412 37 972 110 243 32 374 37 565
20 89 -8 146 -5 395 20 393 40 427 44 463 63 72 37 60 38 -444 35 l-489 -2
-115 26 c-63 14 -187 42 -275 62 -201 45 -195 43 -195 63 0 14 30 27 128 59
169 56 219 63 402 60 130 -1 165 1 215 17 51 17 84 19 230 17 195 -3 269 9
398 66 72 32 90 35 225 43 81 5 197 10 258 10 136 0 210 13 241 42 18 17 63
127 63 154 0 2 -72 4 -160 4 -88 0 -160 -3 -160 -6 0 -4 16 -26 35 -50 l36
-43 -53 -15 c-164 -47 -162 -47 -611 -36 -232 5 -447 13 -477 16 -52 6 -220
69 -220 83 0 3 18 19 40 35 22 17 37 33 33 37 -5 4 -96 9 -203 11 -167 4 -203
8 -254 26 -32 12 -61 23 -63 26 -2 2 13 32 34 67 50 83 79 99 198 109 117 10
180 31 233 76 79 67 98 70 646 90 206 7 239 12 244 37 4 22 -20 24 -468 42
-212 9 -440 20 -507 24 -132 9 -136 11 -296 110 -116 72 -154 82 -322 91 -82
5 -195 15 -250 24 -55 8 -121 17 -146 21 -34 4 -54 14 -75 37 -49 52 -70 55
-339 63 l-250 8 -30 32 c-16 18 -47 51 -69 74 -27 30 -52 45 -90 55 -70 19
-325 32 -1121 57 -709 23 -751 27 -743 66 5 29 87 41 288 42 102 1 313 12 470
25 410 35 468 38 840 40 360 2 401 7 561 61 67 23 111 28 464 50 214 14 424
31 465 38 64 10 75 15 75 32 0 28 -30 32 -250 35 -104 1 -212 7 -240 14 l-50
12 27 18 c18 12 57 20 117 25 50 5 97 14 106 21 18 15 20 70 2 94 -11 15 -24
17 -78 14 -35 -3 -237 -1 -449 4 -1239 26 -2326 65 -2720 99 -160 13 -392 23
-730 29 -706 13 -857 18 -1110 41 -258 22 -598 32 -1805 54 -857 15 -905 17
-1021 36 l-61 11 26 68 25 69 53 7 c74 9 176 -3 259 -32 90 -31 132 -30 212 2
35 14 97 33 139 42 70 15 82 15 200 -2 179 -26 269 -13 374 55 47 30 51 30
330 55 155 13 285 26 288 29 2 3 -5 23 -17 44 -12 21 -22 54 -22 73 0 53 -19
98 -47 109 -13 5 -165 9 -336 9 -172 0 -526 5 -787 10 -261 5 -806 17 -1210
25 -404 9 -991 22 -1305 31 -313 8 -876 19 -1250 24 -789 11 -1011 22 -1364
71 -139 19 -169 20 -1050 10 -651 -8 -991 -8 -1210 0 -324 12 -736 2 -1018
-25 -105 -10 -241 -12 -515 -9 -269 4 -490 1 -793 -12 -521 -21 -1211 -17
-1365 9 -52 9 -122 16 -155 16 -133 1 -137 23 -15 81 68 32 90 47 90 62 0 19
-6 19 -177 13 -98 -3 -221 -9 -273 -12 -95 -6 -124 -1 -250 49 -8 3 -19 4 -25
2z m-1949 -2816 c19 -39 34 -72 32 -74 -2 -2 -260 -5 -573 -7 -451 -2 -586 0
-645 11 -83 15 -180 48 -180 61 0 14 82 41 145 47 42 4 79 0 117 -11 78 -22
203 -20 593 13 182 16 363 29 402 30 l73 1 36 -71z m793 -99 c228 -56 252 -64
235 -77 -61 -44 -317 -68 -470 -43 -88 14 -185 45 -196 63 -12 19 2 80 26 106
19 21 27 23 86 18 36 -2 179 -33 319 -67z m-7174 -2368 l40 -8 -35 -12 c-71
-26 -232 -37 -355 -25 -231 24 -165 51 125 51 102 1 203 -2 225 -6z"/>
<path d="M33273 17333 c-15 -3 -23 -12 -23 -24 0 -10 3 -19 8 -19 24 0 865
-62 1072 -80 135 -11 368 -24 519 -30 150 -5 315 -15 365 -21 113 -13 268 -48
261 -59 -3 -4 -42 -18 -87 -30 -81 -22 -92 -23 -408 -16 -692 13 -1333 39
-1961 78 -398 24 -406 23 -427 -36 -7 -19 -24 -41 -37 -50 -28 -18 -154 -36
-424 -61 -103 -10 -189 -22 -210 -32 l-36 -16 45 -15 c72 -23 761 -36 895 -16
75 12 143 14 270 9 176 -6 173 -7 705 51 230 24 263 26 555 20 586 -13 1129
-39 1148 -56 4 -4 -3 -33 -17 -65 -15 -32 -26 -60 -26 -62 0 -5 43 -1 218 23
112 16 114 16 185 -7 71 -23 71 -23 341 -11 149 7 352 17 451 24 137 9 295 9
660 0 498 -12 634 -9 1220 24 263 15 319 16 465 4 342 -28 630 -4 764 62 35
18 37 21 23 36 -14 13 -143 24 -769 68 -1266 89 -1250 88 -1293 114 -26 16
-33 25 -24 30 8 4 89 26 182 50 154 40 167 45 167 66 0 21 -6 23 -87 31 -174
16 -1103 9 -1518 -12 -468 -24 -871 -24 -1276 -1 -163 9 -471 21 -685 26 -383
9 -1168 11 -1211 3z"/>
<path d="M38873 15495 c-26 -11 -33 -20 -33 -41 l0 -26 88 6 c138 11 154 15
150 40 -2 16 -13 22 -43 28 -64 11 -127 8 -162 -7z"/>
<path d="M39963 15293 c-31 -12 -8 -23 47 -23 47 0 60 3 60 15 0 11 -12 15
-47 14 -27 0 -54 -3 -60 -6z"/>
<path d="M39160 15056 c0 -30 45 -33 80 -6 l25 20 -52 0 c-39 0 -53 -4 -53
-14z"/>
<path d="M39850 14794 l0 -27 63 7 c86 10 107 16 107 32 0 11 -19 14 -85 14
l-85 0 0 -26z"/>
<path d="M40127 12824 c-21 -21 -5 -34 43 -34 38 0 50 4 50 15 0 9 -9 15 -22
15 -13 0 -32 3 -43 6 -11 3 -24 2 -28 -2z"/>
<path d="M37930 11089 c-171 -43 -268 -59 -422 -69 -90 -6 -460 -33 -823 -60
-363 -27 -734 -54 -825 -60 -241 -15 -354 -27 -655 -70 -327 -47 -462 -62
-845 -95 -265 -23 -470 -53 -509 -75 -26 -14 197 -23 424 -17 125 3 363 20
550 38 351 34 450 38 665 25 165 -10 342 7 605 58 99 19 254 42 345 51 91 9
235 23 320 31 301 29 943 123 1065 155 53 14 132 52 174 84 40 29 33 30 -69 4z"/>
<path d="M19965 10920 c-146 -7 -329 -31 -379 -50 -19 -7 -19 -8 5 -24 24 -15
48 -15 330 -1 395 19 1792 20 2004 1 77 -7 144 -9 149 -5 20 18 -4 36 -56 42
-309 37 -1569 59 -2053 37z"/>
<path d="M22265 10886 l-50 -11 44 -18 c159 -65 546 -59 746 10 l50 18 -105 6
c-184 11 -631 8 -685 -5z"/>
<path d="M24715 10874 c-11 -2 -57 -11 -103 -20 -45 -9 -81 -18 -79 -20 2 -2
50 -9 107 -14 109 -12 166 -5 238 26 l37 17 -30 7 c-32 8 -137 10 -170 4z"/>
<path d="M25480 10851 c0 -28 9 -31 63 -19 69 14 64 38 -8 38 -48 0 -55 -3
-55 -19z"/>
<path d="M29005 10759 c-393 -11 -1234 -46 -1595 -66 -209 -12 -464 -17 -875
-17 -538 -1 -585 -2 -642 -20 -35 -10 -63 -23 -63 -28 0 -5 17 -17 38 -26 34
-16 83 -17 567 -12 979 8 1875 4 2505 -14 1271 -34 1822 -44 1946 -35 100 7
257 38 324 63 10 3 24 -8 42 -34 32 -46 86 -65 152 -55 22 4 149 34 281 66
132 33 273 62 312 66 51 4 77 11 88 23 13 15 14 20 3 26 -20 13 -398 21 -1283
29 -708 6 -830 9 -970 26 -174 21 -317 22 -830 8z"/>
<path d="M32642 10611 c-378 -65 -384 -67 -405 -95 l-20 -28 329 7 c181 4 408
10 506 14 l176 6 -70 83 c-62 72 -74 82 -102 81 -17 -1 -204 -31 -414 -68z"/>
<path d="M34088 10530 c-54 -3 -101 -9 -104 -13 -14 -14 26 -18 147 -15 102 3
124 6 124 18 0 18 -31 20 -167 10z"/>
</g>
</svg>
